<svg id="Layer_1" data-name="Layer 1" xmlns="http://www.w3.org/2000/svg" xmlns:xlink="http://www.w3.org/1999/xlink" viewBox="0 0 1012 594"><defs><style>.cls-1{fill:url(#linear-gradient);}.cls-2{fill:#f7941d;}.cls-3{fill:url(#linear-gradient-2);}.cls-4,.cls-5{opacity:0.2;}.cls-4{fill:url(#linear-gradient-3);}.cls-5{fill:#bb6928;}.cls-6{fill:#231f20;}</style><linearGradient id="linear-gradient" x1="678.76" y1="248.82" x2="746.4" y2="181.19" gradientUnits="userSpaceOnUse"><stop offset="0" stop-color="#39b54a"/><stop offset="1" stop-color="#d7df23"/></linearGradient><linearGradient id="linear-gradient-2" x1="508.09" y1="435.16" x2="577.18" y2="275.71" gradientUnits="userSpaceOnUse"><stop offset="0" stop-color="#2484c6"/><stop offset="0.67" stop-color="#2484c6" stop-opacity="0.32"/><stop offset="1" stop-color="#2484c6" stop-opacity="0"/></linearGradient><linearGradient id="linear-gradient-3" x1="400.94" y1="327.33" x2="445.58" y2="373.51" gradientUnits="userSpaceOnUse"><stop offset="0" stop-color="#754c29"/><stop offset="0.45" stop-color="#4f6672" stop-opacity="0.53"/><stop offset="1" stop-color="#2484c6" stop-opacity="0"/></linearGradient></defs><title>logo</title><path class="cls-1" d="M662.54,210.81a29.17,29.17,0,0,0,.59,5.6c1.66,10,5.54,19,12.66,26.46,6.35,6.63,14.19,10.62,23,12.84a2.23,2.23,0,0,1,1.53,1.13c1.37,2.35,2.81,4.67,4.22,7q5,8.57,10.07,17.14,2.67,4.54,5.36,9.06,4-.12,8.05-.13h.78c1.62-2.67,3.11-5.32,4.89-7.8a6.65,6.65,0,0,1,3.19-2.49c8.93-3.78,16.53-9.2,21.8-17.53a2.88,2.88,0,0,0,.44-.47,34.46,34.46,0,0,0,4.95-21.29,25.65,25.65,0,0,0-.68-5.59,66.18,66.18,0,0,0-8.55-21,76.26,76.26,0,0,0-4.51-6.85,2.63,2.63,0,0,0-.28.42,85.13,85.13,0,0,1-9.37,18.51c-1.05,1.33-2,2.71-3.17,4-2.66,3-5.39,6-8.09,9a31.76,31.76,0,0,0-7.59,11.57A21.44,21.44,0,0,0,720,262.93a23.32,23.32,0,0,0,8.42,14.71c1.49,1.21,1.53,1.15,2.7-.31a64.24,64.24,0,0,0,9.36-15.7,63,63,0,0,0,4.57-14c.49-.92.31-2.07,1-3.17l-.81,9.29h0A62.74,62.74,0,0,1,741.73,264a128.38,128.38,0,0,1-7.58,13.42c-2.73,4-5.36,8-8.37,11.88-2.75-3.36-5.27-6.73-7.76-10.12-3.4-4.62-6.38-9.51-9.39-14.39-.13-.28-.24-.57-.39-.84a128.8,128.8,0,0,1-12.35-30.28,50,50,0,0,1-1.8-7.12h0c-1.16-6.07-2-12.18-2.71-18.31a7.32,7.32,0,0,0-.24-2.73l0-.5,0-2.4c.13-.25,0-.59.27-.79.48,3.35.84,6.71,1.61,10l.1.73a7.51,7.51,0,0,0,.44,2.21c.11.74.18,1.5.33,2.23a109.06,109.06,0,0,0,2.91,12.29,4.45,4.45,0,0,0,.18,1.17c.88,3.2,2,6.34,3.07,9.47a56.53,56.53,0,0,0,6.51,13.19c.26.38.39,1.08,1.18.66,5-2.68,9.6-5.88,13.09-10.46h0c.36-.48.74-1,1.09-1.44a26,26,0,0,0,4.31-9.57,6.44,6.44,0,0,0,.24-.75c1-5.42,0-10.62-1.59-15.78a11.58,11.58,0,0,0-.7-2.58c-3-9.21-7.9-17.52-12.46-26-.51-1.07-1-2.15-1.52-3.21-1.41-2.89-2.73-5.82-3.9-8.82a97.9,97.9,0,0,1-4.63-16.48,4.81,4.81,0,0,0,0-.66,107.26,107.26,0,0,1-1.28-20.6c0-.73,0-1.46,0-2.39a72.54,72.54,0,0,0-15.36,13.15,79.24,79.24,0,0,0-12.17,17.22,42.41,42.41,0,0,0-3,6.13,64.49,64.49,0,0,0-3.91,10.84,57.27,57.27,0,0,0-2.37,10,60,60,0,0,0-1.1,9.72,49.51,49.51,0,0,0,.11,8A4.21,4.21,0,0,0,662.54,210.81ZM691,199.52h0ZM669.31,207a.55.55,0,0,1,0,.07v0ZM666,211.36h.06c.13,0,0,.06-.08,0Z"/><path class="cls-2" d="M732.32,456.53a80.44,80.44,0,1,1,80.44-80.44A80.54,80.54,0,0,1,732.32,456.53Z"/><path class="cls-3" d="M465,459.1s54.22-48.87,35-220.38l120.38-.39L619,394.42s-50.14,98.71-143.1,65.1"/><path class="cls-4" d="M509.13,365.67s-24.46-32-99.78-80l-1.6,85,15.44,53.93,32,30.3Z"/><path class="cls-2" d="M403.53,230.51l4.34,149.43s16.74,67.59,61.39,71.93c0,0,83.71-55.18,57.66-143.85C526.92,308,485.38,215.63,403.53,230.51Z"/><path class="cls-5" d="M498.86,431.86s-14.19-98.2-89.51-146.23l-1.6,85,15.44,53.93,32,30.3Z"/><path class="cls-6" d="M474.3,296.58H440.48a7.43,7.43,0,0,1,0-14.87H474.3a7.43,7.43,0,0,1,0,14.87Z"/><path class="cls-6" d="M606.06,296.58H568.67c-7.46-6.56-2.91-14.87,3.57-14.87h33.6a7.57,7.57,0,0,1,7.63,7.07A7.43,7.43,0,0,1,606.06,296.58Z"/><path class="cls-6" d="M732.32,283.12a93,93,0,1,0,93,93A93.07,93.07,0,0,0,732.32,283.12Zm0,173.41a80.44,80.44,0,1,1,80.44-80.44A80.54,80.54,0,0,1,732.32,456.53Z"/><path class="cls-6" d="M631.13,324.34H620v35.31a102,102,0,0,1-7.92,39.6,104,104,0,0,1-22.71,33.79,96.87,96.87,0,0,1-33.79,23,106.38,106.38,0,0,1-40.13,7.65A105,105,0,0,1,475.9,456q-1.13-.46-2.25-.94a121.7,121.7,0,0,0,40.81-181L662.88,137.46h0a2.46,2.46,0,0,0,.24-.26l.07-.09.09-.12,0-.09.06-.11a2.47,2.47,0,0,0,.1-.22l0-.1a2.48,2.48,0,0,0,.1-.34v0a2.46,2.46,0,0,0,0-.33s0-.07,0-.11,0-.16,0-.24,0-.08,0-.12a2.49,2.49,0,0,0,0-.25l0-.1a2.45,2.45,0,0,0-.12-.33l-4.31-9.69a2.48,2.48,0,0,0-2.27-1.47H438.8a2.48,2.48,0,0,0-2.48,2.48v9.69a2.48,2.48,0,0,0,2.48,2.48H642.1L505.4,263.43a121.49,121.49,0,0,0-88.33-38c-1.87,0-3.74,0-5.59.13V121H400.39V226.55a121,121,0,0,0-48.51,17.81q-1.85-.82-3.63-1.64a50.51,50.51,0,0,0-7.13-2.64q10.56-4.22,16.37-11.09a62.55,62.55,0,0,0,15-21.65,69.22,69.22,0,0,0,0-51.75,62.63,62.63,0,0,0-15-21.65Q337.42,113.88,310,113.88H194.86V468.18H310a114.61,114.61,0,0,0,44.62-8.71c2.57-1.08,5.08-2.27,7.54-3.54a121.7,121.7,0,0,0,98.62,5,114.38,114.38,0,0,0,10.66,5.12,113.22,113.22,0,0,0,44.09,8.71,115.74,115.74,0,0,0,104.8-66.39v60.44h11.09V345h-.25ZM417.07,237.2a110,110,0,0,1,43.6,211,99.57,99.57,0,0,1-18.57-15.18,96.77,96.77,0,0,1-23-33.79,105,105,0,0,1-7.66-39.6V237.34Q414.25,237.2,417.07,237.2ZM205.95,125H310q23.76,0,40.13,16.37t16.37,40.13a54,54,0,0,1-16.37,39.6Q335.84,235.32,310,235.32h-104ZM350.1,449.44A106.38,106.38,0,0,1,310,457.09h-104V246.41H310a94.15,94.15,0,0,1,31.43,5.42,121.7,121.7,0,0,0,9.17,197.41Zm67,7.81a110,110,0,0,1-16.68-218.79V364.94a113.73,113.73,0,0,0,9.77,41.19,115.19,115.19,0,0,0,24,34.85A118.59,118.59,0,0,0,448,452.82,109.7,109.7,0,0,1,417.07,457.25Z"/><path class="cls-6" d="M678.82,393.68c-.27,0-1.13-.88-.64.25a19.12,19.12,0,0,0,2.91,4.89c.47.55,1.25,1.27.34,1.86-.71.47-1.15-.49-1.51-1-.48-.66-.82-1.41-1.23-2.12-2-3.49-3.3-7.39-5.84-10.66-1.87-2.41-1.9-5.49-1.5-8.44a8.16,8.16,0,0,0-1-5.45c-.93-1.65-.9-3.7-1.53-5.55-.37-1.09-1.28-1.39-1.58-2.24-.36-1-.47-2.14-.87-3.13-.26-.64-.58-1.64-1.4-1.55a2.35,2.35,0,0,0-2.06,1.45,9.73,9.73,0,0,0-.41,1.58c-.14.81.2,1.86-1.08,2.08.07-.94-1.34-1.06-1-2.31a80.46,80.46,0,0,1,5.76-16.11c.77-1.58,2.24-1.49,3.52-1.9.49-.16,1.29.23,1.49-.36,1.07-3,4-2.31,6.17-3.16a2.24,2.24,0,0,1,3.13,1.34c.22.77.66.59,1.07.46a2.28,2.28,0,0,1,2.85.9c.22-1.58-.14-2.53-1.59-2.23-1.28.27-1.6-1.06-2.62-1.22-.44-.07-.15-.79.25-1.14s1.25-.17,1.67-1c-.81-.31-1.89.13-2.47-1-.37-.72-1,.25-1.38.56a1,1,0,0,1-1.13.23c-.46-.26-.18-.72-.09-1.09a9,9,0,0,1,2.17-4.12,3,3,0,0,1,4.22-.47c.93.65,1.78,1.41,2.74,2.18.74-1.13.49-2.54,1.36-3.46.43-.46.91-1.28,1.65-.72s.07,1-.29,1.55a3.27,3.27,0,0,0,0,4c.34.5,1.46.8.88,1.5-.71.86-.21,2.62-2,2.69a2.27,2.27,0,0,0-.73.33c1.46,1.49,2.63,1.44,3.58-.11,1.44-2.32,1.44-2.32,3.64-2.34-1.3-1.37-1.45-2.71-.16-4.13.4-.44.69-.78,1.33-.66a1.13,1.13,0,0,1,.92,1.18,9.83,9.83,0,0,0,1,4.1c.61.14.59-1.2,1.44-.61.6.42.35,1,.3,1.48s-.3,1.07.31,1.23c.89.23.65-.66.82-1.08.37-.92,1.11-1.63,1.08-2.78,0-.82.92-.66,1.48-.51s1.69.21,1.5,1.28c-.31,1.72.45,3.6-1.29,5.14-1.08,1-.86,2.46.46,3.52.52.42,1.08,1.06.71,1.75s-1-.08-1.46,0c-1,.18-2,1.22-3.15.31s1-1.94,0-2.91a22.26,22.26,0,0,1-4.79,5.33c-1.12,1-1.28,2.34-2,3.46-.85,1.3-.08,2.24.62,3.55,1.63,3.09,4.72,3.4,7.29,4.58,1.3.6,1.9,1,1.7,2.38-.17,1.17-.18,2.36,1.11,3,.39.2.78.66,1.29.25a1.06,1.06,0,0,0,.39-1.27c-.75-1.87-.6-3.35,1.15-4.75,1.1-.88.73-2.44.12-3.63a3,3,0,0,1-.15-3.16c.5-1,.21-2.41.15-3.63-.05-1,.28-1.29,1.34-1.48,2.61-.47,4.17,1.1,5.77,2.62.63.6.43,1.51.4,2.34,0,.51-1.12,1.25.21,1.54.91.19,1.95.92,2.66-.39a4.64,4.64,0,0,0,.4-.7c.2-.61,0-1.55.88-1.65s1.13.87,1.41,1.51c.67,1.5,1.78,2.77,1.61,4.68a2.67,2.67,0,0,0,2.09,2.22c2.21-.06,2.31,1.91,3.24,2.94s.66,2.84.27,4.31c-.2.76-.31,1.29.7,1.5,1.85.38,1.66,2.26,2.18,3.48.36.86-.89.83-1.45.56a9.74,9.74,0,0,0-4.26-1.26c-1,0-.67-.57-.41-1.1.44-.92.87-1.85,1.28-2.78.14-.31.3-.66-.08-.9a.67.67,0,0,0-.93.13c-.51,1-1.48.8-2.29,1-.27.08-.83-.22-.72.53.28,2.06-1,1.31-1.74.78-1.68-1.19-3.39-1.11-4.71.44-.61.72-1.18,1.48-1.86,2.34,1,.18,1.14-.63,1.52-1a5.73,5.73,0,0,1,2.91-1.8c.66-.15,1.36-.22,1.39.87.06,2.11.85,2.79,3.08,2.91.48,0,1.18-.48,1.42.28a1.35,1.35,0,0,1-.8,1.52c-1.35.75-2.71,1.53-4.1,2.14-1.62.7-.8-.83-.88-1.68-1.88,1.08-4.51,1-4.39,4.1,0,.16-.34.44-.56.5-2.46.65-3.12,2.81-3.66,4.79a8,8,0,0,1-3.6,5c-1.71,1.08-2.26,2.43-1.14,4.3a6.84,6.84,0,0,1,.74,2.1c.11.54.47,1.31-.38,1.56-.66.19-1.14-.27-1.47-.84-.77-1.35-.9-3-2.13-4.12-.58-1.44-1.56-1.79-3.08-1.45a33.55,33.55,0,0,1-7.67.39,40.21,40.21,0,0,0-5.68.09c-.67.09-1.35.25-1.91-.33C680.47,392.23,680.47,392.23,678.82,393.68Z"/><path class="cls-6" d="M705.38,315c-1.07-1.28-1.13-1.73,0-2.14A66.37,66.37,0,0,1,721.18,309c2.58-.25,5.25,0,7.88,0,3.34,0,6.65-.68,9.92-.7,2.72,0,6.16-.55,8,2.73.23.41.35.89,1,.43s1.55-.58,1.82.6c.11.51.34.48.68.23a1.57,1.57,0,0,1,1.37-.16c1.18.28,2.75.28,3.43,1,.89,1-.64,1.94-1.11,2.9-.7,1.4-.71,2.58.78,3.51.53.33,1.43.6,1.24,1.41-.22,1-1.25-.1-1.85.6a9.09,9.09,0,0,0,3,2.69c.55.3.78,1,.5,1-1.54.35-.84,1.86-1.54,2.65-1.42,1.6-1.1,3.39-.27,5.17a3.25,3.25,0,0,1-1.36,4.14,12.4,12.4,0,0,1-4.87,1.87,3.61,3.61,0,0,0-2.59,1.79,5.74,5.74,0,0,1-4.28,2.8c-1.69.21-1.83,1.74-2.16,3-.59,2.32-1.39,4.59-1.84,7-.18,1-1.13,1-2,.52-1.91-1.16-4-2.09-5.06-4.28a.53.53,0,0,0-.13-.15c-1.32-1.16.15-3.23-1.8-4.59-1-.69-1.45-3.32-1.23-5.32.14-1.23.26-2.26,1.5-2.86.92-.45,1.27-1.18.73-2.41-.56,1.06-1.14,2.21-2.43,1.37a2,2,0,0,1-.52-2.6c.55-1.29,1.62-.78,2.88,0-1.14-1.83-1.14-1.79-3.05-1.89-.89,0-.75-.74-.63-1.36.58-2.91-1.06-7-3.45-8.57-1.59-1-3.41-.7-5-.26-1.85.54-2.63-.78-3.53-1.58s.26-1,.95-1.1c.89-.11,1.86.5,2.9-.47a5.12,5.12,0,0,0-2.78-.23c-.79,0-1.55,0-1.75-1s.63-1,1.26-1.18c1.16-.36,2.12-1.21,3.41-1.29.48,0,1-.77.86-1-2.28-2.3.9-1.62,1.32-2.41.26-.48,1.23-.13,1.55-1.21-1.72.56-3.55-.11-4.69,1.92a6.87,6.87,0,0,1-2.73,2.07,7,7,0,0,0-2.64,2.47c-.49.8-.88,1.64-2,1.9-.8.19-1,1.06-1.12,1.81-.1.54-.14,1.28-.72,1.36-2.52.35-5,1.68-7.61.87,0-1,1-1,1.11-1.58s.59-1.66-.85-1.32c-1.16.27-1.3-.69-1.72-1.34a1.28,1.28,0,0,1,.33-1.81C701.63,315.19,702.65,313.39,705.38,315Z"/><path class="cls-6" d="M678.82,393.68c.64-1.83,3.46-2.53,3.63-1.12.35,2.93,2,.9,2.76.95,3.36.22,6.74.09,10.11.1a5.49,5.49,0,0,0,2.38-.4,2.87,2.87,0,0,1,3.35,1.56c0,.1-.37.33-.56.5-1.58.24-3.33-.7-4.8.79-.18.18-1.56-.36-2.42-.42a2.61,2.61,0,0,0-3,2.06,12.92,12.92,0,0,0,0,4.07,7.94,7.94,0,0,0,1.12,2.36c1.55,2.27,3.22,2.3,4.61-.13a1.37,1.37,0,0,1,1.81-.74c1,.21.85.9.75,1.59-.08.54-.18,1.08-.28,1.61-.19,1,0,1.77,1.21,1.91,2.27.26,3.5,1.34,3.08,3.79a1.64,1.64,0,0,0,.58,1.45c.93,1,2.16.11,3.09.54a2.13,2.13,0,0,0,2.78-.26c1.66-1.39,3.64-2.44,5.88-.71a3.31,3.31,0,0,0,2.66.86c2.81-.59,4.74,1.1,6.68,2.59a5.58,5.58,0,0,0,3.49,1.45A4.16,4.16,0,0,1,732,421.4c.27,1,.8,1.14,1.62,1.45,3.23,1.23,6.78,1.26,9.94,2.73,1.89.88,2.39,2.44.81,3.7a10.38,10.38,0,0,0-3.69,5.61,4.23,4.23,0,0,1-4,3.29,4.72,4.72,0,0,0-3.81,2.39c-1.75,2.91-4.84,4-7.75,5.16-1.47.58-3,.87-4,2.19-1.49,2-3.41,1-5.22.88-.12,0-.33-.16-.31-.21.37-1.65-1.32-2.92-1-4.42a41.37,41.37,0,0,0,.67-7.8,2.37,2.37,0,0,0-1.75-2.46c-4-1.41-5.63-5.23-7.81-8.32a4,4,0,0,1,.69-5.05,2.74,2.74,0,0,0,.86-3.46c-.62-1.32-1.59-1.29-2.86-1.27-1.64,0-2.87-1.07-3.83-2.38-2.19-3-5.52-4-8.8-5.24-3.11-1.15-6.27-2.27-7.61-5.83-.93-2.48-3.21-4.16-4.1-6.68-.26-.42.49-1.53-.84-1.23C678.81,394.34,678.83,394,678.82,393.68Z"/><path class="cls-6" d="M715.13,348.16c.79,1.2,2.37,1.65,1.77,2.57-.72,1.08-1.78-.17-2.66-.48a3.32,3.32,0,0,1-1.55-.94c-1.21-1.65-2.26-3.4-4.81-2.25a.77.77,0,0,1-1.07-.84c.13-1,.8-1.3,1.68-1.49,1.51-.32,3-2.92,2.78-4.74-1,.54-1.73,1.81-3,1.17-.94-.45-.6-1.81.5-2.06.5-.12,1.1.19,1.65-.47-1-.53-2.06-1-2.18-2.38-.05-.65-.63-.78-1.41-.51a13.31,13.31,0,0,1-6.45.24c-.33-.05-.65-.15-1-.22,1.16-1.51-1-2.44-.67-3.72.49-1.74,1.48-3.8,3.16-4,2.29-.21,4.6-1,7-.43.25.06.68.17.7.31.71,3.66,4.35,4.16,6.61,6.12,1,.89,1.53,1.91,1,3s-.17,1.26.57,1.72c1,.64,1.91,1.52,3,2.11a1.23,1.23,0,0,1,.66,1.68c-.32.94-.46,2.07-1.63,2.42-.87.26-1.4-.26-1.81-1-.3-.52-.51-1.12-1.28-1.33a1.82,1.82,0,0,0,.4,2.3c.48.58,1,1.09,1.51,1.66a2,2,0,0,1,.06,2.48c-.58.81-1.15-.2-1.74-.32A14.63,14.63,0,0,1,715.13,348.16Z"/><path class="cls-6" d="M763.9,346.59c-.27,1.09-1.44,1.57-2.42,2.25a3.14,3.14,0,0,1-4-.37c-.81-.63-2-1.41-1.32-2.84a.42.42,0,0,0-.3-.62c-.95-.11-.7-.65-.41-1.13s.76-.83,1.35-.38c1.23.94,2.62.56,3.92.38A2.73,2.73,0,0,1,763.9,346.59Z"/><path class="cls-6" d="M698.38,322.35c.61.45,2.25-.79,2,1.46-.07.7,1.62.81,2.62.44s1.75-1.07,2.81-1.11c.85,0,1.69,0,1.74,1.17,0,1-.16,1.76-1.34,1.89-2.08.23-4.17.43-6.25.73-1.15.16-1.66-.24-1.63-1.38a1.45,1.45,0,0,0-.8-1.5c-.53-.26-1.27-.55-.93-1.3S697.72,322.48,698.38,322.35Z"/><path class="cls-6" d="M684.61,331c-1.12-.24-2.28-.31-2.74-1.35s.53-1.43,1.14-1.9c.85-.64,1.56-1.88,2.94-.79.82.65,1.78,1.36,2-.57,0-.49.88-.91,1-.52.23.79,1.7,1.64.8,2.18C688,329,686.66,330.73,684.61,331Z"/><path class="cls-6" d="M697.55,326.34c-.16.58-.85,1.24-1.38.9-1-.65-1.65-.13-2.5.13-1.17.36-1.9-.45-2.43-1.38a.87.87,0,0,1,0-.77c.69-.74,1.81-.33,2.59-.93s1.64-.77,2.07.43C696.17,325.55,697.6,325,697.55,326.34Z"/><path class="cls-6" d="M702.44,401.75a23.06,23.06,0,0,1,6.7,2.86.62.62,0,0,1,.26.86c-.19.39-.49.67-1,.5a7.82,7.82,0,0,1-2-.9,8.63,8.63,0,0,0-4.08-1.66c-.61-.06-1.73.62-1.76-.58S701.8,402.14,702.44,401.75Z"/><path class="cls-6" d="M694,331.65a7.93,7.93,0,0,1-.19,1.69c-.23.75-.87,1.5-1.62,1.23a3.53,3.53,0,0,1-2.21-1.63.43.43,0,0,1,0-.19c1.74-.42,1.33-3,3.11-3.22S693.81,330.79,694,331.65Z"/><path class="cls-6" d="M697.44,328.18c.49.15,1.32,0,1.36,1,0,.53-2.41,3.09-2.9,3.09-1,0-.73-.76-.76-1.31C695.05,329.38,695.53,328.26,697.44,328.18Z"/><path class="cls-6" d="M712.46,408c-.91-.47-2.38,0-2.44-1-.07-1.2,1.19-1.66,2.36-1.61,1,0,2.37,0,2.37,1.26S713.18,407.47,712.46,408Z"/><path class="cls-6" d="M699.32,320.63a1.1,1.1,0,0,1-1,1.1c-1-.07-.86-1-1-1.71-.09-.49,0-1,.68-.92C698.88,319.22,699,320,699.32,320.63Z"/><path class="cls-6" d="M696.17,320.49c-.07.74-.42,1.13-1.06,1s-1.22-.37-1.15-1.15a1,1,0,0,1,1.13-.91A1,1,0,0,1,696.17,320.49Z"/><path class="cls-6" d="M768.85,439.77c.4,1.7-.29,2.39-2,2.12A8.43,8.43,0,0,1,768.85,439.77Z"/><path class="cls-6" d="M748,309.9a12.23,12.23,0,0,1,4.65,1.32A11,11,0,0,1,748,309.9Z"/><path class="cls-6" d="M679.23,394.44l.93-1c.84.83.42,1.55-.1,2.25Z"/><path class="cls-6" d="M690.21,401.76a5.28,5.28,0,0,1,0-4.07Z"/></svg>